<mxfile host="app.diagrams.net" modified="2022-08-20T14:11:24.248Z" agent="5.0 (Macintosh; Intel Mac OS X 10_15_7) AppleWebKit/537.36 (KHTML, like Gecko) Chrome/103.0.0.0 Safari/537.36" etag="PR1PPJRj18MGqhm9amIA" version="20.2.5" type="github">
  <diagram id="5-H0rtCKg1nhUWyi_ARe" name="Page-1">
    <mxGraphModel dx="4315" dy="1023" grid="0" gridSize="10" guides="1" tooltips="1" connect="1" arrows="1" fold="1" page="1" pageScale="1" pageWidth="1169" pageHeight="827" background="none" math="0" shadow="0">
      <root>
        <mxCell id="0" />
        <mxCell id="1" parent="0" />
        <mxCell id="msO-rLmdDwNuRXcGw9_d-27" value="" style="rounded=1;arcSize=10;dashed=0;fillColor=none;gradientColor=none;strokeWidth=2;" parent="1" vertex="1">
          <mxGeometry x="-2257" y="236" width="300" height="200" as="geometry" />
        </mxCell>
        <mxCell id="msO-rLmdDwNuRXcGw9_d-26" value="" style="rounded=1;arcSize=10;dashed=1;strokeColor=#F59D56;fillColor=none;gradientColor=none;dashPattern=8 4;strokeWidth=2;" parent="1" vertex="1">
          <mxGeometry x="-1697" y="116" width="370" height="590" as="geometry" />
        </mxCell>
        <mxCell id="msO-rLmdDwNuRXcGw9_d-31" value="" style="rounded=1;arcSize=10;dashed=0;fillColor=none;gradientColor=none;strokeWidth=2;" parent="1" vertex="1">
          <mxGeometry x="-1662" y="456" width="300" height="200" as="geometry" />
        </mxCell>
        <mxCell id="msO-rLmdDwNuRXcGw9_d-30" value="" style="rounded=1;arcSize=10;dashed=0;fillColor=none;gradientColor=none;strokeWidth=2;" parent="1" vertex="1">
          <mxGeometry x="-1662" y="236" width="300" height="200" as="geometry" />
        </mxCell>
        <mxCell id="msO-rLmdDwNuRXcGw9_d-20" value="" style="rounded=1;arcSize=10;dashed=0;fillColor=none;gradientColor=none;strokeWidth=2;" parent="1" vertex="1">
          <mxGeometry x="-2327" y="176" width="1017" height="550" as="geometry" />
        </mxCell>
        <mxCell id="msO-rLmdDwNuRXcGw9_d-9" value="" style="outlineConnect=0;dashed=0;verticalLabelPosition=bottom;verticalAlign=top;align=center;html=1;shape=mxgraph.aws3.ec2;fillColor=#F58534;gradientColor=none;" parent="1" vertex="1">
          <mxGeometry x="-2137" y="306" width="50" height="60" as="geometry" />
        </mxCell>
        <mxCell id="msO-rLmdDwNuRXcGw9_d-11" value="" style="outlineConnect=0;dashed=0;verticalLabelPosition=bottom;verticalAlign=top;align=center;html=1;shape=mxgraph.aws3.ec2;fillColor=#F58534;gradientColor=none;" parent="1" vertex="1">
          <mxGeometry x="-1537" y="516" width="50" height="60" as="geometry" />
        </mxCell>
        <mxCell id="msO-rLmdDwNuRXcGw9_d-12" value="" style="outlineConnect=0;dashed=0;verticalLabelPosition=bottom;verticalAlign=top;align=center;html=1;shape=mxgraph.aws3.ec2;fillColor=#F58534;gradientColor=none;" parent="1" vertex="1">
          <mxGeometry x="-2137" y="516" width="50" height="60" as="geometry" />
        </mxCell>
        <mxCell id="msO-rLmdDwNuRXcGw9_d-13" value="" style="outlineConnect=0;dashed=0;verticalLabelPosition=bottom;verticalAlign=top;align=center;html=1;shape=mxgraph.aws3.vpc_nat_gateway;fillColor=#F58534;gradientColor=none;" parent="1" vertex="1">
          <mxGeometry x="-1677" y="316" width="40" height="40" as="geometry" />
        </mxCell>
        <mxCell id="msO-rLmdDwNuRXcGw9_d-15" value="" style="outlineConnect=0;dashed=0;verticalLabelPosition=bottom;verticalAlign=top;align=center;html=1;shape=mxgraph.aws3.application_load_balancer;fillColor=#F58534;gradientColor=none;" parent="1" vertex="1">
          <mxGeometry x="-1767" y="150.5" width="50" height="55.5" as="geometry" />
        </mxCell>
        <mxCell id="msO-rLmdDwNuRXcGw9_d-16" value="" style="outlineConnect=0;dashed=0;verticalLabelPosition=bottom;verticalAlign=top;align=center;html=1;shape=mxgraph.aws3.rds;fillColor=#2E73B8;gradientColor=none;" parent="1" vertex="1">
          <mxGeometry x="-1836.75" y="576" width="50" height="50" as="geometry" />
        </mxCell>
        <mxCell id="msO-rLmdDwNuRXcGw9_d-19" value="" style="rounded=1;arcSize=10;dashed=1;strokeColor=#F59D56;fillColor=none;gradientColor=none;dashPattern=8 4;strokeWidth=2;" parent="1" vertex="1">
          <mxGeometry x="-2287" y="116" width="370" height="590" as="geometry" />
        </mxCell>
        <mxCell id="msO-rLmdDwNuRXcGw9_d-21" value="" style="dashed=0;html=1;shape=mxgraph.aws3.virtual_private_cloud;fillColor=#F58536;gradientColor=none;dashed=0;" parent="1" vertex="1">
          <mxGeometry x="-2317" y="156" width="52" height="36" as="geometry" />
        </mxCell>
        <mxCell id="msO-rLmdDwNuRXcGw9_d-28" value="" style="dashed=0;html=1;shape=mxgraph.aws3.permissions;fillColor=#D9A741;gradientColor=none;dashed=0;" parent="1" vertex="1">
          <mxGeometry x="-2247" y="216" width="30" height="35" as="geometry" />
        </mxCell>
        <mxCell id="msO-rLmdDwNuRXcGw9_d-29" value="" style="rounded=1;arcSize=10;dashed=0;fillColor=none;gradientColor=none;strokeWidth=2;" parent="1" vertex="1">
          <mxGeometry x="-2257" y="456" width="300" height="200" as="geometry" />
        </mxCell>
        <mxCell id="msO-rLmdDwNuRXcGw9_d-32" value="" style="dashed=0;html=1;shape=mxgraph.aws3.permissions;fillColor=#D9A741;gradientColor=none;dashed=0;" parent="1" vertex="1">
          <mxGeometry x="-1647" y="436" width="30" height="35" as="geometry" />
        </mxCell>
        <mxCell id="msO-rLmdDwNuRXcGw9_d-33" value="" style="dashed=0;html=1;shape=mxgraph.aws3.permissions;fillColor=#D9A741;gradientColor=none;dashed=0;" parent="1" vertex="1">
          <mxGeometry x="-1647" y="216" width="30" height="35" as="geometry" />
        </mxCell>
        <mxCell id="msO-rLmdDwNuRXcGw9_d-34" value="" style="dashed=0;html=1;shape=mxgraph.aws3.permissions;fillColor=#D9A741;gradientColor=none;dashed=0;" parent="1" vertex="1">
          <mxGeometry x="-2247" y="433.5" width="30" height="35" as="geometry" />
        </mxCell>
        <mxCell id="msO-rLmdDwNuRXcGw9_d-35" value="" style="outlineConnect=0;dashed=0;verticalLabelPosition=bottom;verticalAlign=top;align=center;html=1;shape=mxgraph.aws3.vpc_nat_gateway;fillColor=#F58534;gradientColor=none;" parent="1" vertex="1">
          <mxGeometry x="-2277" y="316" width="40" height="40" as="geometry" />
        </mxCell>
        <mxCell id="msO-rLmdDwNuRXcGw9_d-37" value="" style="outlineConnect=0;dashed=0;verticalLabelPosition=bottom;verticalAlign=top;align=center;html=1;shape=mxgraph.aws3.elasticache;fillColor=#2E73B8;gradientColor=none;" parent="1" vertex="1">
          <mxGeometry x="-1836.75" y="471" width="48.75" height="58.5" as="geometry" />
        </mxCell>
        <mxCell id="msO-rLmdDwNuRXcGw9_d-40" value="" style="outlineConnect=0;dashed=0;verticalLabelPosition=bottom;verticalAlign=top;align=center;html=1;shape=mxgraph.aws3.ses;fillColor=#D9A741;gradientColor=none;" parent="1" vertex="1">
          <mxGeometry x="-1271.6200000000001" y="403.5" width="62.13" height="65" as="geometry" />
        </mxCell>
        <mxCell id="msO-rLmdDwNuRXcGw9_d-41" value="" style="outlineConnect=0;dashed=0;verticalLabelPosition=bottom;verticalAlign=top;align=center;html=1;shape=mxgraph.aws3.route_53;fillColor=#F58536;gradientColor=none;" parent="1" vertex="1">
          <mxGeometry x="-1272" y="176" width="60.75" height="65.5" as="geometry" />
        </mxCell>
        <mxCell id="msO-rLmdDwNuRXcGw9_d-42" value="" style="outlineConnect=0;dashed=0;verticalLabelPosition=bottom;verticalAlign=top;align=center;html=1;shape=mxgraph.aws3.s3;fillColor=#E05243;gradientColor=none;" parent="1" vertex="1">
          <mxGeometry x="-1269.87" y="293" width="58.62" height="63" as="geometry" />
        </mxCell>
        <mxCell id="msO-rLmdDwNuRXcGw9_d-44" value="" style="outlineConnect=0;dashed=0;verticalLabelPosition=bottom;verticalAlign=top;align=center;html=1;shape=mxgraph.aws3.internet_gateway;fillColor=#F58534;gradientColor=none;" parent="1" vertex="1">
          <mxGeometry x="-1897" y="150.5" width="50" height="51" as="geometry" />
        </mxCell>
        <mxCell id="msO-rLmdDwNuRXcGw9_d-46" value="&lt;font style=&quot;font-size: 16px;&quot;&gt;public sub&lt;/font&gt;" style="text;html=1;strokeColor=none;fillColor=none;align=center;verticalAlign=middle;whiteSpace=wrap;rounded=0;" parent="1" vertex="1">
          <mxGeometry x="-2227" y="236" width="99.75" height="30" as="geometry" />
        </mxCell>
        <mxCell id="msO-rLmdDwNuRXcGw9_d-47" value="&lt;font style=&quot;font-size: 16px;&quot;&gt;private sub&lt;/font&gt;" style="text;html=1;strokeColor=none;fillColor=none;align=center;verticalAlign=middle;whiteSpace=wrap;rounded=0;" parent="1" vertex="1">
          <mxGeometry x="-2227" y="456" width="99.75" height="30" as="geometry" />
        </mxCell>
        <mxCell id="msO-rLmdDwNuRXcGw9_d-48" value="&lt;font style=&quot;font-size: 16px;&quot;&gt;public sub&lt;/font&gt;" style="text;html=1;strokeColor=none;fillColor=none;align=center;verticalAlign=middle;whiteSpace=wrap;rounded=0;" parent="1" vertex="1">
          <mxGeometry x="-1627" y="236" width="99.75" height="30" as="geometry" />
        </mxCell>
        <mxCell id="msO-rLmdDwNuRXcGw9_d-49" value="&lt;font style=&quot;font-size: 16px;&quot;&gt;private sub&lt;/font&gt;" style="text;html=1;strokeColor=none;fillColor=none;align=center;verticalAlign=middle;whiteSpace=wrap;rounded=0;" parent="1" vertex="1">
          <mxGeometry x="-1627" y="456" width="99.75" height="30" as="geometry" />
        </mxCell>
        <mxCell id="msO-rLmdDwNuRXcGw9_d-51" value="&lt;font style=&quot;font-size: 16px;&quot;&gt;internet&lt;br&gt;gateway&lt;/font&gt;" style="text;html=1;strokeColor=none;fillColor=none;align=center;verticalAlign=middle;whiteSpace=wrap;rounded=0;fontSize=16;" parent="1" vertex="1">
          <mxGeometry x="-1917" y="192" width="90" height="60" as="geometry" />
        </mxCell>
        <mxCell id="msO-rLmdDwNuRXcGw9_d-53" value="&lt;font style=&quot;font-size: 16px;&quot;&gt;ALB&lt;/font&gt;" style="text;html=1;strokeColor=none;fillColor=none;align=center;verticalAlign=middle;whiteSpace=wrap;rounded=0;fontSize=16;" parent="1" vertex="1">
          <mxGeometry x="-1767" y="201.5" width="49.75" height="38.5" as="geometry" />
        </mxCell>
        <mxCell id="msO-rLmdDwNuRXcGw9_d-54" value="&lt;font style=&quot;font-size: 16px;&quot;&gt;EC2(プロキシ)&lt;/font&gt;" style="text;html=1;strokeColor=none;fillColor=none;align=center;verticalAlign=middle;whiteSpace=wrap;rounded=0;fontSize=14;" parent="1" vertex="1">
          <mxGeometry x="-2169.5" y="366" width="125" height="30" as="geometry" />
        </mxCell>
        <mxCell id="msO-rLmdDwNuRXcGw9_d-55" value="&lt;font style=&quot;font-size: 16px;&quot;&gt;EC2&lt;/font&gt;" style="text;html=1;strokeColor=none;fillColor=none;align=center;verticalAlign=middle;whiteSpace=wrap;rounded=0;fontSize=14;" parent="1" vertex="1">
          <mxGeometry x="-2137" y="576" width="60" height="30" as="geometry" />
        </mxCell>
        <mxCell id="msO-rLmdDwNuRXcGw9_d-56" value="&lt;font style=&quot;font-size: 16px;&quot;&gt;EC2&lt;/font&gt;" style="text;html=1;strokeColor=none;fillColor=none;align=center;verticalAlign=middle;whiteSpace=wrap;rounded=0;fontSize=14;" parent="1" vertex="1">
          <mxGeometry x="-1542" y="576" width="60" height="30" as="geometry" />
        </mxCell>
        <mxCell id="msO-rLmdDwNuRXcGw9_d-57" value="&lt;font style=&quot;font-size: 16px;&quot;&gt;SES&lt;/font&gt;" style="text;html=1;strokeColor=none;fillColor=none;align=center;verticalAlign=middle;whiteSpace=wrap;rounded=0;fontSize=14;" parent="1" vertex="1">
          <mxGeometry x="-1265" y="471" width="60" height="30" as="geometry" />
        </mxCell>
        <mxCell id="msO-rLmdDwNuRXcGw9_d-58" value="&lt;font style=&quot;font-size: 16px;&quot;&gt;S3&lt;/font&gt;" style="text;html=1;strokeColor=none;fillColor=none;align=center;verticalAlign=middle;whiteSpace=wrap;rounded=0;fontSize=14;" parent="1" vertex="1">
          <mxGeometry x="-1267" y="356" width="60" height="30" as="geometry" />
        </mxCell>
        <mxCell id="msO-rLmdDwNuRXcGw9_d-59" value="&lt;font style=&quot;font-size: 16px;&quot;&gt;Route53&lt;/font&gt;" style="text;html=1;strokeColor=none;fillColor=none;align=center;verticalAlign=middle;whiteSpace=wrap;rounded=0;fontSize=14;" parent="1" vertex="1">
          <mxGeometry x="-1267" y="240" width="60" height="30" as="geometry" />
        </mxCell>
        <mxCell id="msO-rLmdDwNuRXcGw9_d-60" value="NAT" style="text;html=1;strokeColor=none;fillColor=none;align=center;verticalAlign=middle;whiteSpace=wrap;rounded=0;fontSize=14;" parent="1" vertex="1">
          <mxGeometry x="-1637" y="321" width="50" height="30" as="geometry" />
        </mxCell>
        <mxCell id="msO-rLmdDwNuRXcGw9_d-62" value="NAT" style="text;html=1;strokeColor=none;fillColor=none;align=center;verticalAlign=middle;whiteSpace=wrap;rounded=0;fontSize=14;" parent="1" vertex="1">
          <mxGeometry x="-2247" y="321" width="60" height="30" as="geometry" />
        </mxCell>
        <mxCell id="msO-rLmdDwNuRXcGw9_d-63" value="&lt;font style=&quot;font-size: 16px;&quot;&gt;Elasticache&lt;/font&gt;" style="text;html=1;strokeColor=none;fillColor=none;align=center;verticalAlign=middle;whiteSpace=wrap;rounded=0;fontSize=14;" parent="1" vertex="1">
          <mxGeometry x="-1867.25" y="531" width="109.75" height="30" as="geometry" />
        </mxCell>
        <mxCell id="msO-rLmdDwNuRXcGw9_d-64" value="&lt;font style=&quot;font-size: 16px;&quot;&gt;RDS&lt;/font&gt;" style="text;html=1;strokeColor=none;fillColor=none;align=center;verticalAlign=middle;whiteSpace=wrap;rounded=0;fontSize=14;" parent="1" vertex="1">
          <mxGeometry x="-1841.75" y="626" width="60" height="30" as="geometry" />
        </mxCell>
        <mxCell id="msO-rLmdDwNuRXcGw9_d-65" value="&lt;font style=&quot;font-size: 20px;&quot;&gt;Availability zone c&lt;/font&gt;" style="text;html=1;strokeColor=none;fillColor=none;align=center;verticalAlign=middle;whiteSpace=wrap;rounded=0;fontSize=16;" parent="1" vertex="1">
          <mxGeometry x="-1637" y="136" width="260" height="30" as="geometry" />
        </mxCell>
        <mxCell id="msO-rLmdDwNuRXcGw9_d-66" value="&lt;font style=&quot;font-size: 20px;&quot;&gt;Availability zone a&lt;/font&gt;" style="text;html=1;strokeColor=none;fillColor=none;align=center;verticalAlign=middle;whiteSpace=wrap;rounded=0;fontSize=16;" parent="1" vertex="1">
          <mxGeometry x="-2227" y="136" width="260" height="30" as="geometry" />
        </mxCell>
        <mxCell id="msO-rLmdDwNuRXcGw9_d-67" value="" style="outlineConnect=0;dashed=0;verticalLabelPosition=bottom;verticalAlign=top;align=center;html=1;shape=mxgraph.aws3.iam;fillColor=#759C3E;gradientColor=none;fontSize=20;" parent="1" vertex="1">
          <mxGeometry x="-1260.06" y="516" width="39" height="77.5" as="geometry" />
        </mxCell>
        <mxCell id="msO-rLmdDwNuRXcGw9_d-68" value="&lt;font style=&quot;font-size: 16px;&quot;&gt;IAM&lt;/font&gt;" style="text;html=1;strokeColor=none;fillColor=none;align=center;verticalAlign=middle;whiteSpace=wrap;rounded=0;fontSize=20;" parent="1" vertex="1">
          <mxGeometry x="-1265" y="596" width="60" height="30" as="geometry" />
        </mxCell>
      </root>
    </mxGraphModel>
  </diagram>
</mxfile>
